<svg width="541" height="495" viewBox="0 0 541 495" fill="none" xmlns="http://www.w3.org/2000/svg">
<mask id="mask0_46_53" style="mask-type:luminance" maskUnits="userSpaceOnUse" x="0" y="0" width="541" height="495">
<rect width="541" height="495" fill="white"/>
</mask>
<g mask="url(#mask0_46_53)">
<ellipse cx="276.109" cy="247.5" rx="228.011" ry="247.5" fill="#F1F0FF"/>
<rect x="291.274" y="161.473" width="99.7542" height="156.174" fill="white"/>
<path d="M271.28 256.795H373.561" stroke="black"/>
<path d="M271.28 267.008H373.561" stroke="black"/>
<path d="M271.28 277.22H373.561" stroke="black"/>
<path d="M271.28 287.433H373.561" stroke="black"/>
<ellipse cx="341.151" cy="207.006" rx="26.0964" ry="26.3839" fill="#F2F2F2"/>
<rect opacity="0.7" x="373.561" y="217.007" width="41.2484" height="38.7245" fill="#98B9F2"/>
<path d="M384.284 236.968L390.562 234.508V235.475L385.428 237.414L390.562 239.358V240.325L384.284 237.859V236.968ZM396.121 232.333H396.938L394.435 240.223H393.619L396.121 232.333ZM406.171 237.87L399.892 240.325V239.358L405.021 237.414L399.892 235.475V234.508L406.171 236.968V237.87Z" fill="white"/>
<rect x="118.913" y="84.6633" width="222.659" height="148.089" stroke="black"/>
<path d="M118.913 92.5361H341.572" stroke="black"/>
<rect x="135.117" y="105.727" width="66.9243" height="67.6613" stroke="black"/>
<path d="M214.879 111.686H317.159" stroke="black"/>
<path d="M214.879 121.898H317.159" stroke="black"/>
<path d="M214.879 132.111H317.159" stroke="black"/>
<path d="M214.879 142.324H317.159" stroke="black"/>
<path opacity="0.44" fill-rule="evenodd" clip-rule="evenodd" d="M168.579 123.6L150.354 155.512H186.805L168.579 123.6Z" fill="#918EF4"/>
<ellipse cx="123.753" cy="88.7057" rx="1.89388" ry="1.91473" fill="#AB8DE5"/>
<ellipse cx="130.277" cy="88.7057" rx="1.89388" ry="1.91473" fill="#73E5E2"/>
<ellipse cx="136.801" cy="88.7057" rx="1.89388" ry="1.91473" fill="#50B89D"/>
<path fill-rule="evenodd" clip-rule="evenodd" d="M216.983 205.411L223.297 199.772H216.857L216.983 205.411Z" fill="#AB8DE5"/>
<path fill-rule="evenodd" clip-rule="evenodd" d="M210.67 189.559C210.67 186.562 211.718 184.005 213.813 181.886C215.909 179.767 218.439 178.708 221.403 178.708H248.762C251.726 178.708 254.255 179.767 256.351 181.886C258.447 184.005 259.495 186.562 259.495 189.559C259.495 192.555 258.447 195.113 256.351 197.232C254.255 199.35 251.726 200.41 248.762 200.41H221.403C218.439 200.41 215.909 199.35 213.813 197.232C211.718 195.113 210.67 192.555 210.67 189.559Z" fill="#AB8DE5"/>
<ellipse cx="228.559" cy="189.559" rx="1.89388" ry="1.91473" fill="white"/>
<ellipse cx="235.082" cy="189.559" rx="1.89387" ry="1.91473" fill="white"/>
<ellipse cx="241.606" cy="189.559" rx="1.89387" ry="1.91473" fill="white"/>
<path fill-rule="evenodd" clip-rule="evenodd" d="M416.914 141.579L410.6 135.941H417.04L416.914 141.579Z" fill="#98B9F2"/>
<path fill-rule="evenodd" clip-rule="evenodd" d="M423.227 125.728C423.227 128.724 422.18 131.282 420.084 133.401C417.988 135.519 415.458 136.579 412.494 136.579H385.135C382.172 136.579 379.642 135.519 377.546 133.401C375.45 131.282 374.403 128.724 374.403 125.728C374.403 122.731 375.45 120.174 377.546 118.055C379.642 115.936 382.172 114.877 385.135 114.877L412.494 114.877C415.458 114.877 417.988 115.936 420.084 118.055C422.18 120.174 423.227 122.731 423.227 125.728Z" fill="#98B9F2"/>
<ellipse cx="405.339" cy="125.728" rx="1.89388" ry="1.91473" fill="white"/>
<ellipse cx="398.814" cy="125.728" rx="1.89388" ry="1.91473" fill="white"/>
<ellipse cx="392.291" cy="125.728" rx="1.89388" ry="1.91473" fill="white"/>
<ellipse cx="413.547" cy="86.7911" rx="1.89388" ry="1.91473" fill="#918EF4"/>
<ellipse cx="417.545" cy="94.6632" rx="1.89388" ry="1.91473" fill="#918EF4"/>
<ellipse cx="373.981" cy="172.325" rx="2.94663" ry="2.97909" fill="#918EF4"/>
<ellipse cx="391.238" cy="182.538" rx="2.94663" ry="2.97909" fill="#918EF4"/>
<ellipse cx="126.069" cy="185.942" rx="2.94664" ry="2.97909" fill="#F98B67"/>
<path fill-rule="evenodd" clip-rule="evenodd" d="M380.799 322.009V321.584L379.789 320.308L377.453 317.439L374.97 314.401C374.97 314.401 372.579 312.729 371.965 312.439C369.773 311.293 367.353 310.663 364.886 310.595C363.266 310.595 357.208 310.842 357.196 311.871C357.196 313.398 365.68 319.182 371.898 321.991C374.629 322.009 380.799 322.009 380.799 322.009Z" fill="#1F161E"/>
<path fill-rule="evenodd" clip-rule="evenodd" d="M379.516 322.009C370.883 315.294 353.26 278.668 357.78 265.093C367.402 270.05 377.959 287.145 382.938 301.579C383.206 302.519 383.421 303.474 383.582 304.438L385.603 313.8L386.091 322.026L379.516 322.009Z" fill="#6F9CEB"/>
<path fill-rule="evenodd" clip-rule="evenodd" d="M385.409 322.009C382.496 319.618 381.567 312.537 381.541 309.895C381.494 304.963 382.244 301.328 386.415 295.903C390.587 290.478 389.475 281.477 395.014 275.404C400.554 269.332 404.224 267.638 410.797 267.638C417.37 267.638 419.463 278.413 419.425 281.124C419.349 292.06 412.535 293.609 408.376 298.826C405.359 302.613 405.123 305.711 404.209 307.482C399.31 317.022 395.328 320.61 392.382 322.01" fill="#918EF4"/>
<path d="M387.017 321.217C387.101 302.566 406.539 274.548 410.696 270.352" stroke="white" stroke-width="0.4" stroke-linecap="round" stroke-linejoin="round"/>
<path d="M388.064 312.741C385.913 310.371 383.959 303.651 384.25 301.906" stroke="white" stroke-width="0.4" stroke-linecap="round" stroke-linejoin="round"/>
<path d="M382.556 320.4C379.508 314.94 365.049 288.318 359.658 268.709" stroke="white" stroke-width="0.4" stroke-linecap="round" stroke-linejoin="round"/>
<path fill-rule="evenodd" clip-rule="evenodd" d="M392.4 322.008H401.458L393.886 350.52H373.624L366.169 322.008H392.4" fill="#B37361"/>
<path d="M360.158 312.447C364.574 312.753 370.13 312.958 374.049 315.659" stroke="white" stroke-width="0.4" stroke-linecap="round" stroke-linejoin="round"/>
<path fill-rule="evenodd" clip-rule="evenodd" d="M457.484 205.557C455.991 213.286 445.149 309.161 448.693 332.061C452.237 354.96 510.047 402.942 512.577 403.781C515.527 401.432 519.866 393.727 519.866 393.727C519.866 393.727 477.479 340.392 476.671 338.253C475.863 336.115 485.956 212.602 485.956 212.602L457.484 205.557Z" fill="#7472C1"/>
<path fill-rule="evenodd" clip-rule="evenodd" d="M526.514 223.006L483.266 414.481H468.701L483.461 214.732L526.514 223.006Z" fill="#AB8DE5"/>
<path fill-rule="evenodd" clip-rule="evenodd" d="M495.8 113.377C501.77 113.377 532.914 114.472 538.541 126.369C544.168 138.266 538.866 193.267 535.368 195.393C533.48 196.54 532.966 195.425 532.418 197.753C531.869 200.08 526.518 223.002 526.518 223.002C523.12 223.104 473.583 215.003 457.495 205.533C457.59 202.896 458.368 196.057 458.368 195.531C456.233 196.478 453.649 196.677 452.941 195.531C446.664 185.214 456.02 131.431 462.734 120.608C465.586 115.971 486.211 113.409 495.8 113.377Z" fill="#6F9CEB"/>
<path fill-rule="evenodd" clip-rule="evenodd" d="M516.303 196.88C517.766 196.88 530.362 206.485 529.281 211.204C530.166 207.414 532.951 195.701 532.951 195.701C531.754 195.951 517.377 196.899 516.303 196.88Z" fill="#1F161E"/>
<path fill-rule="evenodd" clip-rule="evenodd" d="M503.507 119.653C503.507 121.735 488.34 121.735 488.34 119.653V98.5203H503.507V119.653Z" fill="#F8CDBA"/>
<path fill-rule="evenodd" clip-rule="evenodd" d="M494.806 103.521C495.986 103.521 503.507 107.13 503.507 109.143V98.5203C501.631 98.5203 494.806 103.521 494.806 103.521Z" fill="#1F161E"/>
<ellipse cx="492.729" cy="89.0491" rx="14.7542" ry="16.0152" fill="#F8CDBA"/>
<path fill-rule="evenodd" clip-rule="evenodd" d="M487.739 65.6376C480.164 65.6376 475.444 70.7993 475.444 77.4142C475.444 82.9145 476.672 86.0276 478.117 86.8146C479.031 81.4738 481.019 79.002 482.665 77.9388C483.944 79.002 486.134 81.5766 489.058 82.3704C491.982 83.1643 499.6 83.0103 505.753 87.8652C507.765 85.8805 509.771 83.299 509.771 80.258C509.771 77.2171 508.532 73.4003 501.246 71.1963C496.435 69.7417 495.762 65.6376 487.739 65.6376Z" fill="#1F161E"/>
<ellipse cx="478.943" cy="92.3468" rx="2.58412" ry="1.4601" fill="#FA9E9F"/>
<ellipse cx="495.196" cy="92.3468" rx="2.58412" ry="1.4601" fill="#FA9E9F"/>
<path d="M485.255 89.3184C484.772 90.0678 482.306 93.2115 484.908 94.48" stroke="#1F161E" stroke-linecap="round"/>
<path d="M490.115 98.1483C491.184 97.8631 492.115 97.1522 492.723 96.1567" stroke="#1F161E" stroke-linecap="round"/>
<ellipse cx="506.368" cy="90.8937" rx="3.41012" ry="3.70159" fill="#F8CDBA"/>
<path d="M516.644 144.889C516.379 148.424 515.34 165.893 515.73 168.193C510.781 170.062 465.462 193.39 457.621 195.951" stroke="#1F161E" stroke-linecap="round"/>
<path d="M464.011 139.375C462.966 143.332 459.451 161.295 461.923 169.632" stroke="#1F161E" stroke-linecap="round"/>
<path d="M475.58 187.78C477.94 189.585 500.558 200.447 531.831 196.348" stroke="#1F161E" stroke-linecap="round"/>
<path fill-rule="evenodd" clip-rule="evenodd" d="M473.417 169.639C474.933 169.901 469.988 165.614 467.187 167.211C464.386 168.809 460.61 176.023 461.382 177.694C461.593 178.309 462.049 178.787 462.622 178.993C463.196 179.2 463.824 179.113 464.332 178.758C465.091 178.226 470.772 169.177 473.417 169.639Z" fill="#F8CDBA"/>
<path fill-rule="evenodd" clip-rule="evenodd" d="M519.382 394.514C520.19 395.154 527.358 400.419 527.417 403.736C527.476 407.053 520.739 418.048 519.382 418.362C518.026 418.675 517.058 417.433 517.058 415.211C517.058 412.989 519.615 409.096 519.276 407.367C518.937 405.637 515.624 402.474 513.925 402.417" fill="#EBEBEB" fill-opacity="0.25098"/>
<path fill-rule="evenodd" clip-rule="evenodd" d="M481.881 414.481C481.881 416.008 482.696 425.572 481.067 426.462C479.437 427.351 461.469 427.877 460.654 426.993C459.84 426.109 459.345 424.246 460.065 423.715C460.785 423.183 467.737 421.672 468.678 420.968C470.066 419.163 470.706 416.816 470.447 414.481" fill="#EBEBEB" fill-opacity="0.25098"/>
<rect x="15.3448" y="343.451" width="114.082" height="62.8132" fill="#B37361"/>
<path fill-rule="evenodd" clip-rule="evenodd" d="M185.631 314.013C186.127 317.215 194.539 390.414 195.902 391.625C197.265 392.835 211.735 395.518 212.974 393.507C213.222 390.305 213.564 339.256 214.331 334.689" fill="#1F161E"/>
<path fill-rule="evenodd" clip-rule="evenodd" d="M22.867 298.741C17.0326 295.622 29.1976 357.443 61.2132 357.443C93.2289 357.443 147.119 304.505 155.845 304.505C175.106 304.505 220.702 345.553 224.277 345.553C227.015 342.581 232.489 337.382 232.489 335.307C232.489 333.232 188.834 255.261 156.168 255.261C143.504 255.279 36.0408 305.804 22.867 298.741Z" fill="#7472C1"/>
<path fill-rule="evenodd" clip-rule="evenodd" d="M40.8843 299.794C47.2851 298.219 55.2497 294.14 62.2988 289.97C43.1193 296.771 27.4036 301.177 22.867 298.744C19.7753 297.092 21.7342 313.639 29.0045 329.578C27.6862 326.494 25.8104 303.53 40.8843 299.794Z" fill="#1F161E"/>
<path fill-rule="evenodd" clip-rule="evenodd" d="M54.994 191.339C60.0382 191.486 86.2962 190.645 93.4936 198.089C98.8319 203.608 115.434 251.078 117.994 267.747C106.844 273.901 26.4178 315.697 1.53433 297.319C0.985794 283.039 3.5405 226.272 19.8188 196.501C25.7695 192.197 50.1454 191.204 54.994 191.339Z" fill="white"/>
<path fill-rule="evenodd" clip-rule="evenodd" d="M65.2243 177.757H49.8807V195.649C49.8807 200.132 65.2243 200.09 65.2243 195.649V177.757Z" fill="#F8CDBA"/>
<path fill-rule="evenodd" clip-rule="evenodd" d="M49.8858 188.559C49.8858 186.574 54.9531 181.586 58.0857 181.758C58.1624 179.549 50.9254 176.373 50.9254 176.373L49.8807 179.427L49.8858 188.559Z" fill="#1F161E"/>
<path fill-rule="evenodd" clip-rule="evenodd" d="M81.2878 177.757C81.6324 176.024 81.8065 174.256 81.8069 172.483C81.8069 159.278 72.3028 148.572 60.5688 148.572C48.8348 148.572 39.3307 159.278 39.3307 172.483C39.3307 174.249 39.5043 176.017 39.8485 177.75L81.2878 177.757Z" fill="#1F161E"/>
<path fill-rule="evenodd" clip-rule="evenodd" d="M75.69 161.639C73.088 161.21 70.4923 158.988 68.6818 157.535C58.3581 165.744 51.745 165.849 51.0303 165.849C50.3155 165.849 47.4079 170.383 46.0692 170.895L45.9515 170.819C47.0184 177.345 51.3929 182.656 57.249 184.534C63.1052 186.413 69.4364 184.536 73.5999 179.687C77.7635 174.838 79.0436 167.851 76.906 161.642C76.5026 161.696 76.0946 161.696 75.6913 161.642L75.69 161.639Z" fill="#F8CDBA"/>
<ellipse cx="49.0663" cy="144.753" rx="6.2653" ry="6.80082" fill="#1F161E"/>
<path d="M51.8562 165.488C50.4466 165.555 49.3358 166.815 49.3358 168.347C49.3358 169.878 50.4466 171.138 51.8562 171.206" stroke="#1F161E" stroke-linecap="round"/>
<path d="M71.9385 165.853C72.7057 166.973 74.699 168.939 71.9385 171.02" stroke="#1F161E" stroke-linecap="round"/>
<path d="M63.5672 172.519C63.4967 173.986 64.2968 175.339 65.5554 175.88" stroke="#1F161E" stroke-linecap="round"/>
<ellipse cx="58.4284" cy="171.347" rx="2.43068" ry="1.36988" fill="#FA9E9F"/>
<ellipse cx="76.4981" cy="171.347" rx="2.43068" ry="1.36988" fill="#FA9E9F"/>
<path fill-rule="evenodd" clip-rule="evenodd" d="M92.9399 240.82L109.335 236.24C110.91 239.148 118.579 267.714 118.579 267.714L93.2724 279.293C93.601 273.882 94.5971 249.1 92.9399 240.82Z" fill="#F8CDBA"/>
<path d="M35.4565 236.344C34.8964 241.137 34.0091 245.878 32.8021 250.528" stroke="#1F161E" stroke-linecap="round"/>
<path d="M92.94 240.821C92.5449 237.433 90.2319 218.345 86.2911 208.297" stroke="#1F161E" stroke-linecap="round"/>
<path fill-rule="evenodd" clip-rule="evenodd" d="M92.9399 240.82L109.335 236.24C110.91 239.148 118.579 267.714 118.579 267.714L93.2724 279.293C93.601 273.882 94.5971 249.1 92.9399 240.82Z" fill="#F8CDBA"/>
<path fill-rule="evenodd" clip-rule="evenodd" d="M224.767 344.04C225.133 344.68 230.017 351.186 231.746 351.257C233.475 351.328 243.97 343.611 243.509 341.958C243.049 340.305 236.465 341.382 235.332 340.799C233.662 339.657 232.265 338.101 231.256 336.259" fill="#1F161E"/>
<path fill-rule="evenodd" clip-rule="evenodd" d="M198.957 392.305C198.829 393.015 198.166 401.399 199.363 402.756C200.56 404.113 213.045 406.47 213.776 404.927C214.507 403.383 209.056 399.201 208.637 397.934C208.174 395.856 208.174 393.687 208.637 391.608" fill="#1F161E"/>
<path fill-rule="evenodd" clip-rule="evenodd" d="M179.377 269.508H123.823L137.049 231.464H192.603L179.377 269.508Z" fill="#969696"/>
<rect x="77.5311" y="268.075" width="55.5541" height="1.43372" fill="#969696"/>
<path fill-rule="evenodd" clip-rule="evenodd" d="M32.802 250.534C31.7344 254.863 26.5482 273.435 28.6605 276.635C30.7728 279.836 83.6661 272.581 97.8193 267.798C101.424 266.517 104.096 263.163 105.694 262.727C109.946 261.944 114.057 264.766 115.228 269.271C109.581 272.243 27.9765 317.465 1.53688 297.339C-3.46002 293.453 5.30629 246.065 5.70778 243.676C10.1715 244.259 32.802 250.534 32.802 250.534Z" fill="#F8CDBA"/>
<path d="M93.6957 268.952C95.2889 268.535 96.6813 268.138 97.8257 267.754C101.43 266.473 104.102 263.118 105.701 262.683C109.952 261.9 114.063 264.722 115.234 269.227" stroke="#1F161E" stroke-linecap="round"/>
</g>
</svg>
