<svg width="160" height="160" viewBox="0 0 160 160" fill="none" xmlns="http://www.w3.org/2000/svg">
<path d="M94.325 58.6568L106.35 70.3895L90.9921 75.1231L94.325 58.6568Z" fill="#285B49"/>
<path d="M46.9984 88.7854L106.073 69.9643L104.994 79.7538L103.438 89.6952L44.8402 108.365L45.9193 98.575L46.9984 88.7854Z" fill="#278C67"/>
<path d="M66.1514 79.6397L53.9021 68.1418L69.1652 63.112L66.1514 79.6397Z" fill="#285B49"/>
<path d="M56.1584 49.0164L115.233 30.1953L114.153 39.9849L112.598 49.9262L54.0001 68.5956L55.0792 58.806L56.1584 49.0164Z" fill="#278C67"/>
<path d="M41.364 127C41.052 127 40.764 126.924 40.5 126.772C40.236 126.612 40.028 126.404 39.876 126.148C39.724 125.884 39.648 125.592 39.648 125.272V124.54H41.376V125.188C41.376 125.212 41.38 125.232 41.388 125.248C41.404 125.256 41.42 125.26 41.436 125.26H46.464C46.48 125.26 46.496 125.256 46.512 125.248C46.528 125.232 46.536 125.212 46.536 125.188V123.616C46.536 123.6 46.528 123.588 46.512 123.58C46.496 123.564 46.48 123.556 46.464 123.556H41.364C41.052 123.556 40.764 123.48 40.5 123.328C40.236 123.168 40.028 122.956 39.876 122.692C39.724 122.428 39.648 122.14 39.648 121.828V120.088C39.648 119.768 39.724 119.48 39.876 119.224C40.028 118.96 40.236 118.752 40.5 118.6C40.764 118.44 41.052 118.36 41.364 118.36H46.56C46.872 118.36 47.156 118.44 47.412 118.6C47.676 118.752 47.888 118.96 48.048 119.224C48.208 119.48 48.288 119.768 48.288 120.088V120.82H46.536V120.172C46.536 120.148 46.528 120.132 46.512 120.124C46.496 120.108 46.48 120.1 46.464 120.1H41.436C41.42 120.1 41.404 120.108 41.388 120.124C41.38 120.132 41.376 120.148 41.376 120.172V121.744C41.376 121.76 41.38 121.776 41.388 121.792C41.404 121.8 41.42 121.804 41.436 121.804H46.56C46.872 121.804 47.156 121.884 47.412 122.044C47.676 122.196 47.888 122.404 48.048 122.668C48.208 122.932 48.288 123.22 48.288 123.532V125.272C48.288 125.592 48.208 125.884 48.048 126.148C47.888 126.404 47.676 126.612 47.412 126.772C47.156 126.924 46.872 127 46.56 127H41.364ZM55.3578 127V118.36H57.0738V127H55.3578ZM64.1642 127V118.36H66.0002L69.0242 121.972L72.0362 118.36H73.8842V127H72.1442V120.94L69.0242 124.672L65.8922 120.952V127H64.1642ZM82.401 127C82.081 127 81.789 126.924 81.525 126.772C81.269 126.612 81.061 126.404 80.901 126.148C80.749 125.884 80.673 125.592 80.673 125.272V124.228H82.401V125.188C82.401 125.212 82.405 125.232 82.413 125.248C82.429 125.256 82.449 125.26 82.473 125.26H87.489C87.513 125.26 87.529 125.256 87.537 125.248C87.553 125.232 87.561 125.212 87.561 125.188V118.36H89.313V125.272C89.313 125.592 89.233 125.884 89.073 126.148C88.913 126.404 88.701 126.612 88.437 126.772C88.181 126.924 87.897 127 87.585 127H82.401ZM98.3643 127C98.0443 127 97.7523 126.924 97.4883 126.772C97.2323 126.612 97.0243 126.404 96.8643 126.148C96.7123 125.884 96.6363 125.592 96.6363 125.272V118.36H98.3643V125.188C98.3643 125.212 98.3683 125.232 98.3763 125.248C98.3923 125.256 98.4123 125.26 98.4363 125.26H103.452C103.476 125.26 103.492 125.256 103.5 125.248C103.516 125.232 103.524 125.212 103.524 125.188V118.36H105.276V125.272C105.276 125.592 105.196 125.884 105.036 126.148C104.876 126.404 104.664 126.612 104.4 126.772C104.144 126.924 103.86 127 103.548 127H98.3643ZM119.39 127L116.834 123.952H119.102L121.214 126.46V127H119.39ZM112.598 127V118.372H119.498C119.818 118.372 120.106 118.452 120.362 118.612C120.626 118.764 120.838 118.972 120.998 119.236C121.158 119.5 121.238 119.788 121.238 120.1V122.38C121.238 122.692 121.158 122.98 120.998 123.244C120.838 123.5 120.626 123.708 120.362 123.868C120.106 124.02 119.818 124.096 119.498 124.096L114.326 124.108V127H112.598ZM114.398 122.356H119.414C119.438 122.356 119.454 122.352 119.462 122.344C119.478 122.328 119.486 122.312 119.486 122.296V120.172C119.486 120.148 119.478 120.132 119.462 120.124C119.454 120.108 119.438 120.1 119.414 120.1H114.398C114.374 120.1 114.354 120.108 114.338 120.124C114.33 120.132 114.326 120.148 114.326 120.172V122.296C114.326 122.312 114.33 122.328 114.338 122.344C114.354 122.352 114.374 122.356 114.398 122.356Z" fill="#285B49"/>
</svg>
